<svg id="visual" viewBox="0 0 300 300" width="300" height="300" xmlns="http://www.w3.org/2000/svg" xmlns:xlink="http://www.w3.org/1999/xlink" version="1.1"><rect x="0" y="0" width="300" height="300" fill="#ffffff"></rect><g transform="translate(143.34621605645265 156.63658627410825)"><path d="M22.7 -45.6C27 -36.8 26.5 -25.9 33.9 -17.9C41.3 -10 56.7 -5 62.1 3.2C67.6 11.3 63.3 22.7 54.5 28.3C45.8 33.9 32.6 33.8 22.8 35.7C13 37.5 6.5 41.3 -1.2 43.4C-9 45.6 -18 46.2 -24.5 42.4C-31 38.7 -35 30.6 -35.6 22.8C-36.3 15 -33.7 7.5 -38 -2.5C-42.3 -12.5 -53.6 -25 -50.8 -29.1C-48 -33.1 -31 -28.7 -20.2 -33.8C-9.4 -38.9 -4.7 -53.5 2.2 -57.3C9.2 -61.2 18.3 -54.4 22.7 -45.6" fill="#BB004B"></path></g></svg>