<svg id="visual" viewBox="0 0 400 330" width="400" height="330" xmlns="http://www.w3.org/2000/svg" xmlns:xlink="http://www.w3.org/1999/xlink" version="1.1"><rect x="0" y="0" width="400" height="330" fill="#ffffff"></rect><g transform="translate(200.25 165)"><path d="M39.2 -67.8C51 -61 61 -51 67.8 -39.2C74.7 -27.3 78.3 -13.7 78.3 0C78.3 13.7 74.7 27.3 67.8 39.2C61 51 51 61 39.2 67.8C27.3 74.7 13.7 78.3 0 78.3C-13.7 78.3 -27.3 74.7 -39.2 67.8C-51 61 -61 51 -67.9 39.2C-74.8 27.3 -78.7 13.7 -78.8 0C-78.8 -13.7 -75.1 -27.5 -68.2 -39.3C-61.3 -51.2 -51.1 -61.1 -39.2 -67.9C-27.3 -74.7 -13.7 -78.3 0 -78.3C13.7 -78.3 27.3 -74.7 39.2 -67.8" fill="none" stroke="#BB004B" stroke-width="6"></path></g></svg>