<svg id="visual" viewBox="0 0 100 100" width="100" height="100" xmlns="http://www.w3.org/2000/svg" xmlns:xlink="http://www.w3.org/1999/xlink" version="1.1"><rect x="0" y="0" width="100" height="100" fill="#ffffff"></rect><g transform="translate(50 50)"><path d="M11.9 -20.7C15.6 -18.6 18.6 -15.6 20.7 -11.9C22.8 -8.3 23.9 -4.2 23.9 0C23.9 4.2 22.8 8.3 20.7 11.9C18.6 15.6 15.6 18.6 11.9 20.7C8.3 22.8 4.2 23.9 0 23.9C-4.2 23.9 -8.3 22.8 -11.9 20.7C-15.6 18.6 -18.6 15.6 -20.7 11.9C-22.8 8.3 -23.9 4.2 -23.9 0C-23.9 -4.2 -22.8 -8.3 -20.7 -11.9C-18.6 -15.6 -15.6 -18.6 -11.9 -20.7C-8.3 -22.8 -4.2 -23.9 0 -23.9C4.2 -23.9 8.3 -22.8 11.9 -20.7" fill="#BB004B"></path></g></svg>