<svg id="visual" viewBox="0 0 300 300" width="300" height="300" xmlns="http://www.w3.org/2000/svg" xmlns:xlink="http://www.w3.org/1999/xlink" version="1.1"><rect x="0" y="0" width="300" height="300" fill="#ffffff"></rect><g transform="translate(150 150)"><path d="M35.8 -62.1C46.7 -55.8 55.8 -46.7 62.1 -35.8C68.3 -25 71.7 -12.5 71.7 0C71.7 12.5 68.3 25 62.1 35.8C55.8 46.7 46.7 55.8 35.8 62.1C25 68.3 12.5 71.7 0 71.7C-12.5 71.7 -25 68.3 -35.8 62.1C-46.7 55.8 -55.8 46.7 -62.1 35.8C-68.3 25 -71.7 12.5 -71.7 0C-71.7 -12.5 -68.3 -25 -62.1 -35.8C-55.8 -46.7 -46.7 -55.8 -35.8 -62.1C-25 -68.3 -12.5 -71.7 0 -71.7C12.5 -71.7 25 -68.3 35.8 -62.1" fill="#BB004B"></path></g></svg>