<?xml version="1.0" encoding="UTF-8"?>
<svg preserveAspectRatio="none" version="1.1" viewBox="0 0 1920 1080" xmlns="http://www.w3.org/2000/svg">
<g fill="none" mask="url(#a)">
<rect width="1920" height="1080" fill="rgba(255, 255, 255, 1)"/>
<path d="m1680.6 850.41a75.74 75.74 0 1 0 151.48 0 75.74 75.74 0 1 0-151.48 0z" fill="rgba(242, 226, 196, 1)"/>
<path d="m967.86 449.33h75v75h-75z" stroke="rgba(242, 226, 196, 1)"/>
<path d="m1.68 770.39h81.15v59h-81.15z" fill="rgba(242, 226, 196, 1)"/>
<path d="m34.52 793.27h21.44v21.44h-21.44z" stroke="rgba(242, 226, 196, 1)"/>
<path d="m1562.8 644.24a0.71 0.71 0 1 0-0.23 1.4z" fill="rgba(242, 226, 196, 1)"/>
<path d="m333.46 37.25h89.08v89.08h-89.08z" stroke="rgba(242, 226, 196, 1)"/>
<path d="m611.6 842.98h18.34v79.78h-18.34z" fill="rgba(242, 226, 196, 1)"/>
<path d="m1455.9 94.61h37.22v64.31h-37.22z" stroke="rgba(242, 226, 196, 1)"/>
<path d="m853.83 441.96a26.91 26.91 0 1 0-39.38-36.68z" fill="rgba(242, 226, 196, 1)"/>
<path d="m383.78 127.96h40.49v40.49h-40.49z" fill="rgba(242, 226, 196, 1)"/>
<path d="m1450.8 628.39h107.95v107.95h-107.95z" stroke="rgba(242, 226, 196, 1)"/>
<path d="m1004.2 621.22a104.79 104.79 0 1 0-80.25 193.61z" stroke="rgba(242, 226, 196, 1)"/>
<path d="m1466.6 393.29h45.2v45.2h-45.2z" fill="rgba(242, 226, 196, 1)"/>
<path d="m1417.3 543.42a99.26 99.26 0 1 0 198.52 0 99.26 99.26 0 1 0-198.52 0z" stroke="rgba(242, 226, 196, 1)"/>
<path d="m1392.2 535.18h31.27v31.27h-31.27z" stroke="rgba(242, 226, 196, 1)"/>
<path d="m1089 989.64a57.46 57.46 0 1 0 114.92 0 57.46 57.46 0 1 0-114.92 0z" fill="rgba(242, 226, 196, 1)"/>
<path d="m827.8 619.83h89.03v17.65h-89.03z" stroke="rgba(242, 226, 196, 1)"/>
<path d="m1166.9 237.69a105.28 105.28 0 1 0 210.56 0 105.28 105.28 0 1 0-210.56 0z" stroke="rgba(242, 226, 196, 1)"/>
<path d="m1437.4 756.2h69.49v14.91h-69.49z" fill="rgba(242, 226, 196, 1)"/>
<path d="m1813.1 1040h6.67v6.67h-6.67z" stroke="rgba(242, 226, 196, 1)"/>
<path d="m230.93 26.9h90.43v90.43h-90.43z" fill="rgba(242, 226, 196, 1)"/>
<path d="m110.25 62.79a40.65 40.65 0 1 0 81.3 0 40.65 40.65 0 1 0-81.3 0z" stroke="rgba(242, 226, 196, 1)"/>
<path d="m216.65 225.79a71.71 71.71 0 1 0 143.42 0 71.71 71.71 0 1 0-143.42 0z" fill="rgba(242, 226, 196, 1)"/>
</g>
<defs>
<mask id="a">
<rect width="1920" height="1080" fill="#fff"/>
</mask>
</defs>
</svg>
