<svg viewBox="0 0 200 200" xmlns="http://www.w3.org/2000/svg">
  <path fill="#FA4D56" d="M31.3,-49.4C44.6,-46.5,62.2,-46.3,70.6,-38.5C79,-30.8,78.1,-15.4,79.1,0.6C80,16.5,82.8,33,75.3,42.2C67.7,51.4,49.8,53.3,35.5,53.6C21.3,54,10.6,52.7,0.2,52.3C-10.3,52,-20.5,52.7,-33.2,51.4C-45.8,50.2,-60.9,47,-69.9,38.1C-78.9,29.2,-81.9,14.6,-77,2.8C-72.1,-9,-59.4,-17.9,-52.2,-29.9C-44.9,-41.9,-43.3,-57,-35.5,-63.1C-27.7,-69.3,-13.9,-66.5,-2.4,-62.3C9,-58.1,17.9,-52.3,31.3,-49.4Z" transform="translate(100 100)" />
</svg>